<?xml version="1.0" encoding="UTF-8"?>
<svg xmlns="http://www.w3.org/2000/svg" xmlns:xlink="http://www.w3.org/1999/xlink" width="142.928pt" height="142.928pt" viewBox="0 0 142.928 142.928" version="1.1">
<defs>
<clipPath id="clip1">
  <path d="M 113 28 L 142.929688 28 L 142.929688 58 L 113 58 Z M 113 28 "/>
</clipPath>
<clipPath id="clip2">
  <path d="M 113 85 L 142.929688 85 L 142.929688 114 L 113 114 Z M 113 85 "/>
</clipPath>
<clipPath id="clip3">
  <path d="M 113 85 L 142.929688 85 L 142.929688 115 L 113 115 Z M 113 85 "/>
</clipPath>
<clipPath id="clip4">
  <path d="M 85 113 L 114 113 L 114 142.929688 L 85 142.929688 Z M 85 113 "/>
</clipPath>
<clipPath id="clip5">
  <path d="M 85 113 L 115 113 L 115 142.929688 L 85 142.929688 Z M 85 113 "/>
</clipPath>
<clipPath id="clip6">
  <path d="M 28 113 L 58 113 L 58 142.929688 L 28 142.929688 Z M 28 113 "/>
</clipPath>
</defs>
<g id="surface1">
<path style="fill-rule:nonzero;fill:rgb(95.652771%,91.305542%,0%);fill-opacity:1;stroke-width:0.3985;stroke-linecap:butt;stroke-linejoin:miter;stroke:rgb(0%,0%,0%);stroke-opacity:1;stroke-miterlimit:10;" d="M 56.694969 56.693281 L 56.694969 85.040938 L 85.038719 85.040938 L 85.038719 56.693281 Z M 56.694969 56.693281 " transform="matrix(1,0,0,-1,0.598,142.33)"/>
<path style="fill-rule:nonzero;fill:rgb(50%,50%,50%);fill-opacity:1;stroke-width:0.3985;stroke-linecap:butt;stroke-linejoin:miter;stroke:rgb(0%,0%,0%);stroke-opacity:1;stroke-miterlimit:10;" d="M 28.347313 85.040938 L 28.347313 113.388594 L 56.694969 113.388594 L 56.694969 85.040938 Z M 28.347313 85.040938 " transform="matrix(1,0,0,-1,0.598,142.33)"/>
<path style="fill-rule:nonzero;fill:rgb(50%,50%,50%);fill-opacity:1;stroke-width:0.3985;stroke-linecap:butt;stroke-linejoin:miter;stroke:rgb(0%,0%,0%);stroke-opacity:1;stroke-miterlimit:10;" d="M 85.038719 85.040938 L 85.038719 113.388594 L 113.386375 113.388594 L 113.386375 85.040938 Z M 85.038719 85.040938 " transform="matrix(1,0,0,-1,0.598,142.33)"/>
<path style="fill-rule:nonzero;fill:rgb(50%,50%,50%);fill-opacity:1;stroke-width:0.3985;stroke-linecap:butt;stroke-linejoin:miter;stroke:rgb(0%,0%,0%);stroke-opacity:1;stroke-miterlimit:10;" d="M 85.038719 28.345625 L 85.038719 56.693281 L 113.386375 56.693281 L 113.386375 28.345625 Z M 85.038719 28.345625 " transform="matrix(1,0,0,-1,0.598,142.33)"/>
<path style="fill-rule:nonzero;fill:rgb(50%,50%,50%);fill-opacity:1;stroke-width:0.3985;stroke-linecap:butt;stroke-linejoin:miter;stroke:rgb(0%,0%,0%);stroke-opacity:1;stroke-miterlimit:10;" d="M 28.347313 28.345625 L 28.347313 56.693281 L 56.694969 56.693281 L 56.694969 28.345625 Z M 28.347313 28.345625 " transform="matrix(1,0,0,-1,0.598,142.33)"/>
<g clip-path="url(#clip1)" clip-rule="nonzero">
<path style="fill-rule:nonzero;fill:rgb(50%,50%,50%);fill-opacity:1;stroke-width:0.3985;stroke-linecap:butt;stroke-linejoin:miter;stroke:rgb(0%,0%,0%);stroke-opacity:1;stroke-miterlimit:10;" d="M 113.386375 85.040938 L 113.386375 113.388594 L 141.734031 113.388594 L 141.734031 85.040938 Z M 113.386375 85.040938 " transform="matrix(1,0,0,-1,0.598,142.33)"/>
</g>
<path style="fill-rule:nonzero;fill:rgb(50%,50%,50%);fill-opacity:1;stroke-width:0.3985;stroke-linecap:butt;stroke-linejoin:miter;stroke:rgb(0%,0%,0%);stroke-opacity:1;stroke-miterlimit:10;" d="M 85.038719 113.388594 L 85.038719 141.732344 L 113.386375 141.732344 L 113.386375 113.388594 Z M 85.038719 113.388594 " transform="matrix(1,0,0,-1,0.598,142.33)"/>
<path style="fill-rule:nonzero;fill:rgb(50%,50%,50%);fill-opacity:1;stroke-width:0.3985;stroke-linecap:butt;stroke-linejoin:miter;stroke:rgb(0%,0%,0%);stroke-opacity:1;stroke-miterlimit:10;" d="M 28.347313 113.388594 L 28.347313 141.732344 L 56.694969 141.732344 L 56.694969 113.388594 Z M 28.347313 113.388594 " transform="matrix(1,0,0,-1,0.598,142.33)"/>
<path style="fill-rule:nonzero;fill:rgb(50%,50%,50%);fill-opacity:1;stroke-width:0.3985;stroke-linecap:butt;stroke-linejoin:miter;stroke:rgb(0%,0%,0%);stroke-opacity:1;stroke-miterlimit:10;" d="M -0.00034375 85.040938 L -0.00034375 113.388594 L 28.347313 113.388594 L 28.347313 85.040938 Z M -0.00034375 85.040938 " transform="matrix(1,0,0,-1,0.598,142.33)"/>
<g clip-path="url(#clip2)" clip-rule="nonzero">
<path style=" stroke:none;fill-rule:nonzero;fill:rgb(50%,50%,50%);fill-opacity:1;" d="M 113.984375 113.984375 L 113.984375 85.636719 L 142.332031 85.636719 L 142.332031 113.984375 Z M 113.984375 113.984375 "/>
</g>
<g clip-path="url(#clip3)" clip-rule="nonzero">
<path style="fill:none;stroke-width:0.3985;stroke-linecap:butt;stroke-linejoin:miter;stroke:rgb(0%,0%,0%);stroke-opacity:1;stroke-miterlimit:10;" d="M 113.386375 28.345625 L 113.386375 56.693281 L 141.734031 56.693281 L 141.734031 28.345625 Z M 113.386375 28.345625 " transform="matrix(1,0,0,-1,0.598,142.33)"/>
</g>
<g clip-path="url(#clip4)" clip-rule="nonzero">
<path style=" stroke:none;fill-rule:nonzero;fill:rgb(50%,50%,50%);fill-opacity:1;" d="M 85.636719 142.328125 L 85.636719 113.984375 L 113.984375 113.984375 L 113.984375 142.328125 Z M 85.636719 142.328125 "/>
</g>
<g clip-path="url(#clip5)" clip-rule="nonzero">
<path style="fill:none;stroke-width:0.3985;stroke-linecap:butt;stroke-linejoin:miter;stroke:rgb(0%,0%,0%);stroke-opacity:1;stroke-miterlimit:10;" d="M 85.038719 0.001875 L 85.038719 28.345625 L 113.386375 28.345625 L 113.386375 0.001875 Z M 85.038719 0.001875 " transform="matrix(1,0,0,-1,0.598,142.33)"/>
</g>
<g clip-path="url(#clip6)" clip-rule="nonzero">
<path style="fill-rule:nonzero;fill:rgb(50%,50%,50%);fill-opacity:1;stroke-width:0.3985;stroke-linecap:butt;stroke-linejoin:miter;stroke:rgb(0%,0%,0%);stroke-opacity:1;stroke-miterlimit:10;" d="M 28.347313 0.001875 L 28.347313 28.345625 L 56.694969 28.345625 L 56.694969 0.001875 Z M 28.347313 0.001875 " transform="matrix(1,0,0,-1,0.598,142.33)"/>
</g>
<path style="fill-rule:nonzero;fill:rgb(50%,50%,50%);fill-opacity:1;stroke-width:0.3985;stroke-linecap:butt;stroke-linejoin:miter;stroke:rgb(0%,0%,0%);stroke-opacity:1;stroke-miterlimit:10;" d="M -0.00034375 28.345625 L -0.00034375 56.693281 L 28.347313 56.693281 L 28.347313 28.345625 Z M -0.00034375 28.345625 " transform="matrix(1,0,0,-1,0.598,142.33)"/>
<path style="fill-rule:nonzero;fill:rgb(100%,50%,50%);fill-opacity:1;stroke-width:0.3985;stroke-linecap:butt;stroke-linejoin:miter;stroke:rgb(0%,0%,0%);stroke-opacity:1;stroke-miterlimit:10;" d="M 2.835594 116.220625 L 2.835594 138.900313 L 25.511375 138.900313 L 25.511375 116.220625 Z M 2.835594 116.220625 " transform="matrix(1,0,0,-1,0.598,142.33)"/>
<path style="fill-rule:nonzero;fill:rgb(100%,97.44873%,50%);fill-opacity:1;stroke-width:0.3985;stroke-linecap:butt;stroke-linejoin:miter;stroke:rgb(0%,0%,0%);stroke-opacity:1;stroke-miterlimit:10;" d="M 31.18325 116.220625 L 31.18325 138.900313 L 53.859031 138.900313 L 53.859031 116.220625 Z M 31.18325 116.220625 " transform="matrix(1,0,0,-1,0.598,142.33)"/>
<path style="fill-rule:nonzero;fill:rgb(100%,50%,50%);fill-opacity:1;stroke-width:0.3985;stroke-linecap:butt;stroke-linejoin:miter;stroke:rgb(0%,0%,0%);stroke-opacity:1;stroke-miterlimit:10;" d="M 59.527 116.220625 L 59.527 138.900313 L 82.206688 138.900313 L 82.206688 116.220625 Z M 59.527 116.220625 " transform="matrix(1,0,0,-1,0.598,142.33)"/>
<path style="fill-rule:nonzero;fill:rgb(100%,97.44873%,50%);fill-opacity:1;stroke-width:0.3985;stroke-linecap:butt;stroke-linejoin:miter;stroke:rgb(0%,0%,0%);stroke-opacity:1;stroke-miterlimit:10;" d="M 87.874656 116.220625 L 87.874656 138.900313 L 110.554344 138.900313 L 110.554344 116.220625 Z M 87.874656 116.220625 " transform="matrix(1,0,0,-1,0.598,142.33)"/>
<path style="fill-rule:nonzero;fill:rgb(100%,50%,50%);fill-opacity:1;stroke-width:0.3985;stroke-linecap:butt;stroke-linejoin:miter;stroke:rgb(0%,0%,0%);stroke-opacity:1;stroke-miterlimit:10;" d="M 116.222313 116.220625 L 116.222313 138.900313 L 138.898094 138.900313 L 138.898094 116.220625 Z M 116.222313 116.220625 " transform="matrix(1,0,0,-1,0.598,142.33)"/>
<path style="fill-rule:nonzero;fill:rgb(50%,50%,100%);fill-opacity:1;stroke-width:0.3985;stroke-linecap:butt;stroke-linejoin:miter;stroke:rgb(0%,0%,0%);stroke-opacity:1;stroke-miterlimit:10;" d="M 2.835594 87.876875 L 2.835594 110.552656 L 25.511375 110.552656 L 25.511375 87.876875 Z M 2.835594 87.876875 " transform="matrix(1,0,0,-1,0.598,142.33)"/>
<path style="fill-rule:nonzero;fill:rgb(50%,100%,50%);fill-opacity:1;stroke-width:0.3985;stroke-linecap:butt;stroke-linejoin:miter;stroke:rgb(0%,0%,0%);stroke-opacity:1;stroke-miterlimit:10;" d="M 31.18325 87.876875 L 31.18325 110.552656 L 53.859031 110.552656 L 53.859031 87.876875 Z M 31.18325 87.876875 " transform="matrix(1,0,0,-1,0.598,142.33)"/>
<path style="fill-rule:nonzero;fill:rgb(50%,50%,100%);fill-opacity:1;stroke-width:0.3985;stroke-linecap:butt;stroke-linejoin:miter;stroke:rgb(0%,0%,0%);stroke-opacity:1;stroke-miterlimit:10;" d="M 59.527 87.876875 L 59.527 110.552656 L 82.206688 110.552656 L 82.206688 87.876875 Z M 59.527 87.876875 " transform="matrix(1,0,0,-1,0.598,142.33)"/>
<path style="fill-rule:nonzero;fill:rgb(50%,100%,50%);fill-opacity:1;stroke-width:0.3985;stroke-linecap:butt;stroke-linejoin:miter;stroke:rgb(0%,0%,0%);stroke-opacity:1;stroke-miterlimit:10;" d="M 87.874656 87.876875 L 87.874656 110.552656 L 110.554344 110.552656 L 110.554344 87.876875 Z M 87.874656 87.876875 " transform="matrix(1,0,0,-1,0.598,142.33)"/>
<path style="fill-rule:nonzero;fill:rgb(50%,50%,100%);fill-opacity:1;stroke-width:0.3985;stroke-linecap:butt;stroke-linejoin:miter;stroke:rgb(0%,0%,0%);stroke-opacity:1;stroke-miterlimit:10;" d="M 116.222313 87.876875 L 116.222313 110.552656 L 138.898094 110.552656 L 138.898094 87.876875 Z M 116.222313 87.876875 " transform="matrix(1,0,0,-1,0.598,142.33)"/>
<path style="fill-rule:nonzero;fill:rgb(100%,50%,50%);fill-opacity:1;stroke-width:0.3985;stroke-linecap:butt;stroke-linejoin:miter;stroke:rgb(0%,0%,0%);stroke-opacity:1;stroke-miterlimit:10;" d="M 2.835594 59.529219 L 2.835594 82.205 L 25.511375 82.205 L 25.511375 59.529219 Z M 2.835594 59.529219 " transform="matrix(1,0,0,-1,0.598,142.33)"/>
<path style="fill-rule:nonzero;fill:rgb(100%,97.44873%,50%);fill-opacity:1;stroke-width:0.3985;stroke-linecap:butt;stroke-linejoin:miter;stroke:rgb(0%,0%,0%);stroke-opacity:1;stroke-miterlimit:10;" d="M 31.18325 59.529219 L 31.18325 82.205 L 53.859031 82.205 L 53.859031 59.529219 Z M 31.18325 59.529219 " transform="matrix(1,0,0,-1,0.598,142.33)"/>
<path style="fill-rule:nonzero;fill:rgb(100%,50%,50%);fill-opacity:1;stroke-width:0.3985;stroke-linecap:butt;stroke-linejoin:miter;stroke:rgb(0%,0%,0%);stroke-opacity:1;stroke-miterlimit:10;" d="M 59.527 59.529219 L 59.527 82.205 L 82.206688 82.205 L 82.206688 59.529219 Z M 59.527 59.529219 " transform="matrix(1,0,0,-1,0.598,142.33)"/>
<path style="fill-rule:nonzero;fill:rgb(100%,97.44873%,50%);fill-opacity:1;stroke-width:0.3985;stroke-linecap:butt;stroke-linejoin:miter;stroke:rgb(0%,0%,0%);stroke-opacity:1;stroke-miterlimit:10;" d="M 87.874656 59.529219 L 87.874656 82.205 L 110.554344 82.205 L 110.554344 59.529219 Z M 87.874656 59.529219 " transform="matrix(1,0,0,-1,0.598,142.33)"/>
<path style="fill-rule:nonzero;fill:rgb(100%,50%,50%);fill-opacity:1;stroke-width:0.3985;stroke-linecap:butt;stroke-linejoin:miter;stroke:rgb(0%,0%,0%);stroke-opacity:1;stroke-miterlimit:10;" d="M 116.222313 59.529219 L 116.222313 82.205 L 138.898094 82.205 L 138.898094 59.529219 Z M 116.222313 59.529219 " transform="matrix(1,0,0,-1,0.598,142.33)"/>
<path style="fill-rule:nonzero;fill:rgb(50%,50%,100%);fill-opacity:1;stroke-width:0.3985;stroke-linecap:butt;stroke-linejoin:miter;stroke:rgb(0%,0%,0%);stroke-opacity:1;stroke-miterlimit:10;" d="M 2.835594 31.181563 L 2.835594 53.857344 L 25.511375 53.857344 L 25.511375 31.181563 Z M 2.835594 31.181563 " transform="matrix(1,0,0,-1,0.598,142.33)"/>
<path style="fill-rule:nonzero;fill:rgb(50%,100%,50%);fill-opacity:1;stroke-width:0.3985;stroke-linecap:butt;stroke-linejoin:miter;stroke:rgb(0%,0%,0%);stroke-opacity:1;stroke-miterlimit:10;" d="M 31.18325 31.181563 L 31.18325 53.857344 L 53.859031 53.857344 L 53.859031 31.181563 Z M 31.18325 31.181563 " transform="matrix(1,0,0,-1,0.598,142.33)"/>
<path style="fill-rule:nonzero;fill:rgb(50%,50%,100%);fill-opacity:1;stroke-width:0.3985;stroke-linecap:butt;stroke-linejoin:miter;stroke:rgb(0%,0%,0%);stroke-opacity:1;stroke-miterlimit:10;" d="M 59.527 31.181563 L 59.527 53.857344 L 82.206688 53.857344 L 82.206688 31.181563 Z M 59.527 31.181563 " transform="matrix(1,0,0,-1,0.598,142.33)"/>
<path style="fill-rule:nonzero;fill:rgb(50%,100%,50%);fill-opacity:1;stroke-width:0.3985;stroke-linecap:butt;stroke-linejoin:miter;stroke:rgb(0%,0%,0%);stroke-opacity:1;stroke-miterlimit:10;" d="M 87.874656 31.181563 L 87.874656 53.857344 L 110.554344 53.857344 L 110.554344 31.181563 Z M 87.874656 31.181563 " transform="matrix(1,0,0,-1,0.598,142.33)"/>
<path style="fill-rule:nonzero;fill:rgb(50%,50%,100%);fill-opacity:1;stroke-width:0.3985;stroke-linecap:butt;stroke-linejoin:miter;stroke:rgb(0%,0%,0%);stroke-opacity:1;stroke-miterlimit:10;" d="M 116.222313 31.181563 L 116.222313 53.857344 L 138.898094 53.857344 L 138.898094 31.181563 Z M 116.222313 31.181563 " transform="matrix(1,0,0,-1,0.598,142.33)"/>
<path style="fill-rule:nonzero;fill:rgb(100%,50%,50%);fill-opacity:1;stroke-width:0.3985;stroke-linecap:butt;stroke-linejoin:miter;stroke:rgb(0%,0%,0%);stroke-opacity:1;stroke-miterlimit:10;" d="M 2.835594 2.833906 L 2.835594 25.513594 L 25.511375 25.513594 L 25.511375 2.833906 Z M 2.835594 2.833906 " transform="matrix(1,0,0,-1,0.598,142.33)"/>
<path style="fill-rule:nonzero;fill:rgb(100%,97.44873%,50%);fill-opacity:1;stroke-width:0.3985;stroke-linecap:butt;stroke-linejoin:miter;stroke:rgb(0%,0%,0%);stroke-opacity:1;stroke-miterlimit:10;" d="M 31.18325 2.833906 L 31.18325 25.513594 L 53.859031 25.513594 L 53.859031 2.833906 Z M 31.18325 2.833906 " transform="matrix(1,0,0,-1,0.598,142.33)"/>
<path style="fill-rule:nonzero;fill:rgb(100%,50%,50%);fill-opacity:1;stroke-width:0.3985;stroke-linecap:butt;stroke-linejoin:miter;stroke:rgb(0%,0%,0%);stroke-opacity:1;stroke-miterlimit:10;" d="M 59.527 2.833906 L 59.527 25.513594 L 82.206688 25.513594 L 82.206688 2.833906 Z M 59.527 2.833906 " transform="matrix(1,0,0,-1,0.598,142.33)"/>
<path style="fill-rule:nonzero;fill:rgb(100%,97.44873%,50%);fill-opacity:1;stroke-width:0.3985;stroke-linecap:butt;stroke-linejoin:miter;stroke:rgb(0%,0%,0%);stroke-opacity:1;stroke-miterlimit:10;" d="M 87.874656 2.833906 L 87.874656 25.513594 L 110.554344 25.513594 L 110.554344 2.833906 Z M 87.874656 2.833906 " transform="matrix(1,0,0,-1,0.598,142.33)"/>
<path style="fill-rule:nonzero;fill:rgb(100%,50%,50%);fill-opacity:1;stroke-width:0.3985;stroke-linecap:butt;stroke-linejoin:miter;stroke:rgb(0%,0%,0%);stroke-opacity:1;stroke-miterlimit:10;" d="M 116.222313 2.833906 L 116.222313 25.513594 L 138.898094 25.513594 L 138.898094 2.833906 Z M 116.222313 2.833906 " transform="matrix(1,0,0,-1,0.598,142.33)"/>
<path style="fill:none;stroke-width:0.79701;stroke-linecap:butt;stroke-linejoin:miter;stroke:rgb(0%,0%,0%);stroke-opacity:1;stroke-miterlimit:10;" d="M -0.00034375 0.001875 L 141.734031 0.001875 M -0.00034375 28.345625 L 141.734031 28.345625 M -0.00034375 56.693281 L 141.734031 56.693281 M -0.00034375 85.040938 L 141.734031 85.040938 M -0.00034375 113.388594 L 141.734031 113.388594 M -0.00034375 141.724531 L 141.734031 141.724531 M -0.00034375 0.001875 L -0.00034375 141.732344 M 28.347313 0.001875 L 28.347313 141.732344 M 56.694969 0.001875 L 56.694969 141.732344 M 85.038719 0.001875 L 85.038719 141.732344 M 113.386375 0.001875 L 113.386375 141.732344 M 141.722312 0.001875 L 141.722312 141.732344 " transform="matrix(1,0,0,-1,0.598,142.33)"/>
<path style="fill:none;stroke-width:1.19553;stroke-linecap:butt;stroke-linejoin:miter;stroke:rgb(0%,0%,0%);stroke-opacity:1;stroke-miterlimit:10;" d="M -0.00034375 0.001875 L 141.734031 0.001875 M -0.00034375 56.693281 L 141.734031 56.693281 M -0.00034375 113.388594 L 141.734031 113.388594 M -0.00034375 0.001875 L -0.00034375 141.732344 M 56.694969 0.001875 L 56.694969 141.732344 M 113.386375 0.001875 L 113.386375 141.732344 " transform="matrix(1,0,0,-1,0.598,142.33)"/>
<path style="fill:none;stroke-width:1.19553;stroke-linecap:butt;stroke-linejoin:miter;stroke:rgb(0%,0%,0%);stroke-opacity:1;stroke-miterlimit:10;" d="M -0.00034375 0.001875 L -0.00034375 141.732344 L 141.734031 141.732344 L 141.734031 0.001875 Z M -0.00034375 0.001875 " transform="matrix(1,0,0,-1,0.598,142.33)"/>
<path style="fill:none;stroke-width:1.19553;stroke-linecap:butt;stroke-linejoin:miter;stroke:rgb(19.999695%,19.999695%,19.999695%);stroke-opacity:1;stroke-miterlimit:10;" d="M 42.519188 42.521406 L 66.80825 66.810469 " transform="matrix(1,0,0,-1,0.598,142.33)"/>
<path style=" stroke:none;fill-rule:nonzero;fill:rgb(19.999695%,19.999695%,19.999695%);fill-opacity:1;" d="M 71.464844 71.464844 C 70.039063 72.441406 67.40625 73.71875 65.265625 74.28125 L 68.648438 77.664063 C 69.210938 75.519531 70.488281 72.890625 71.464844 71.464844 "/>
<path style="fill:none;stroke-width:1.19553;stroke-linecap:butt;stroke-linejoin:miter;stroke:rgb(19.999695%,19.999695%,19.999695%);stroke-opacity:1;stroke-miterlimit:10;" d="M 99.2145 42.521406 L 74.925438 66.810469 " transform="matrix(1,0,0,-1,0.598,142.33)"/>
<path style=" stroke:none;fill-rule:nonzero;fill:rgb(19.999695%,19.999695%,19.999695%);fill-opacity:1;" d="M 71.464844 71.464844 C 72.441406 72.890625 73.71875 75.519531 74.28125 77.664063 L 77.664063 74.28125 C 75.523438 73.71875 72.894531 72.441406 71.464844 71.464844 "/>
<path style="fill:none;stroke-width:1.19553;stroke-linecap:butt;stroke-linejoin:miter;stroke:rgb(19.999695%,19.999695%,19.999695%);stroke-opacity:1;stroke-miterlimit:10;" d="M 42.519188 99.212813 L 66.80825 74.92375 " transform="matrix(1,0,0,-1,0.598,142.33)"/>
<path style=" stroke:none;fill-rule:nonzero;fill:rgb(19.999695%,19.999695%,19.999695%);fill-opacity:1;" d="M 71.464844 71.464844 C 70.488281 70.035156 69.210938 67.40625 68.648438 65.261719 L 65.265625 68.644531 C 67.40625 69.207031 70.039063 70.484375 71.464844 71.464844 "/>
<path style="fill:none;stroke-width:1.19553;stroke-linecap:butt;stroke-linejoin:miter;stroke:rgb(19.999695%,19.999695%,19.999695%);stroke-opacity:1;stroke-miterlimit:10;" d="M 99.2145 99.212813 L 74.925438 74.92375 " transform="matrix(1,0,0,-1,0.598,142.33)"/>
<path style=" stroke:none;fill-rule:nonzero;fill:rgb(19.999695%,19.999695%,19.999695%);fill-opacity:1;" d="M 71.464844 71.464844 C 72.894531 70.484375 75.523438 69.207031 77.664063 68.644531 L 74.28125 65.261719 C 73.71875 67.40625 72.441406 70.035156 71.464844 71.464844 "/>
</g>
</svg>
